HIERARCHY
ROOT Hips
{
	OFFSET -0.001795 -0.223333 0.028219
	CHANNELS 6 Xposition Yposition Zposition Zrotation Yrotation Xrotation 
	JOINT LeftUpLeg
	{
		OFFSET 0.069520 -0.091406 -0.006815
		CHANNELS 3 Zrotation Yrotation Xrotation
		JOINT LeftLeg
		{
			OFFSET 0.034277 -0.375199 -0.004496
			CHANNELS 3 Zrotation Yrotation Xrotation
			JOINT LeftFoot
			{
				OFFSET -0.013596 -0.397961 -0.043693
				CHANNELS 3 Zrotation Yrotation Xrotation
				JOINT LeftToe
				{
					OFFSET 0.026358 -0.055791 0.119288
					CHANNELS 3 Zrotation Yrotation Xrotation
					End Site
					{
						OFFSET 0.000000 0.000000 0.000000
					}
				}
			}
		}
	}
	JOINT RightUpLeg
	{
		OFFSET -0.067670 -0.090522 -0.004320
		CHANNELS 3 Zrotation Yrotation Xrotation
		JOINT RightLeg
		{
			OFFSET -0.038290 -0.382569 -0.008850
			CHANNELS 3 Zrotation Yrotation Xrotation
			JOINT RightFoot
			{
				OFFSET 0.015774 -0.398415 -0.042312
				CHANNELS 3 Zrotation Yrotation Xrotation
				JOINT RightToe
				{
					OFFSET -0.025372 -0.048144 0.123348
					CHANNELS 3 Zrotation Yrotation Xrotation
					End Site
					{
						OFFSET 0.000000 0.000000 0.000000
					}
				}
			}
		}
	}
	JOINT Spine
	{
		OFFSET -0.002533 0.108963 -0.026696
		CHANNELS 3 Zrotation Yrotation Xrotation
		JOINT Spine1
		{
			OFFSET 0.005487 0.135180 0.001092
			CHANNELS 3 Zrotation Yrotation Xrotation
			JOINT Spine2
			{
				OFFSET 0.001457 0.052922 0.025425
				CHANNELS 3 Zrotation Yrotation Xrotation
				JOINT Neck
				{
					OFFSET -0.002778 0.213870 -0.042857
					CHANNELS 3 Zrotation Yrotation Xrotation
					JOINT Head
					{
						OFFSET 0.005152 0.064970 0.051349
						CHANNELS 3 Zrotation Yrotation Xrotation
						End Site
						{
							OFFSET 0.000000 0.000000 0.000000
						}
					}
				}
				JOINT LeftShoulder
				{
					OFFSET 0.078845 0.121749 -0.034090
					CHANNELS 3 Zrotation Yrotation Xrotation
					JOINT LeftArm
					{
						OFFSET 0.090977 0.030469 -0.008868
						CHANNELS 3 Zrotation Yrotation Xrotation
						JOINT LeftForeArm
						{
							OFFSET 0.259612 -0.012772 -0.027456
							CHANNELS 3 Zrotation Yrotation Xrotation
							JOINT LeftHand
							{
								OFFSET 0.249234 0.008986 -0.001171
								CHANNELS 3 Zrotation Yrotation Xrotation
								End Site
								{
									OFFSET 0.000000 0.000000 0.000000
								}
							}
						}
					}
				}
				JOINT RightShoulder
				{
					OFFSET -0.081759 0.118833 -0.038615
					CHANNELS 3 Zrotation Yrotation Xrotation
					JOINT RightArm
					{
						OFFSET -0.096012 0.032551 -0.009143
						CHANNELS 3 Zrotation Yrotation Xrotation
						JOINT RightForeArm
						{
							OFFSET -0.253742 -0.013329 -0.021401
							CHANNELS 3 Zrotation Yrotation Xrotation
							JOINT RightHand
							{
								OFFSET -0.255298 0.007772 -0.005559
								CHANNELS 3 Zrotation Yrotation Xrotation
								End Site
								{
									OFFSET 0.000000 0.000000 0.000000
								}
							}
						}
					}
				}
			}
		}
	}
}
MOTION
Frames: 9
Frame Time: 0.050000
0.000000 0.944948 0.000000 -1.909652 4.654635 10.080959 6.183191 -0.455358 -4.852436 -2.302201 0.296407 -6.326487 7.670320 17.086538 11.601298 0.000000 0.000000 0.000000 -5.940792 0.709130 -10.598710 3.088481 -0.342148 0.820692 -6.626239 -16.887894 14.282385 0.000000 0.000000 0.000000 -0.979290 0.080738 -1.463304 5.475576 -0.456500 -26.386427 -1.005523 -1.593709 27.131327 -0.776255 2.425261 -30.356214 0.000000 0.000000 0.000000 -23.457728 4.925009 -4.943505 -55.072846 -4.566420 -6.637096 -9.893412 -19.433668 2.622556 0.000000 0.000000 0.000000 16.073220 0.787717 -0.085072 59.353220 6.830594 -4.767560 3.191966 22.434550 1.657320 0.000000 0.000000 0.000000 
0.000101 0.944861 0.001132 -2.169985 3.372390 10.764326 6.213298 -0.455687 -5.073466 -1.262067 0.269146 -6.713235 8.680601 18.575573 12.090404 0.000000 0.000000 0.000000 -6.098054 0.791169 -11.948424 3.353968 -0.359509 1.248787 -6.018506 -15.996011 14.601280 0.000000 0.000000 0.000000 -0.452426 0.112046 -2.659046 5.512114 -0.483619 -26.217948 -0.969890 -0.247475 27.477359 -1.792616 3.041870 -30.537232 0.000000 0.000000 0.000000 -23.311021 6.136193 -5.798645 -55.370517 -4.409228 -6.725285 -8.847169 -19.871044 2.495016 0.000000 0.000000 0.000000 15.785319 0.397844 -0.181492 60.782108 5.962619 -5.257813 2.293192 23.909592 1.658661 0.000000 0.000000 0.000000 
0.000073 0.944251 0.002147 -1.594584 3.748530 10.559542 6.203779 -0.463154 -5.200429 -1.735390 0.271043 -5.763305 9.160939 19.350056 12.774203 0.000000 0.000000 0.000000 -6.704076 0.738019 -12.058642 3.326341 -0.354280 2.018007 -5.973209 -15.843561 14.268599 0.000000 0.000000 0.000000 -0.431221 0.106317 -2.565407 4.924598 -0.353208 -26.213271 -1.104660 -0.760255 27.509283 -1.916766 3.074663 -30.995043 0.000000 0.000000 0.000000 -22.665222 5.783414 -5.386656 -56.048444 -4.422797 -6.819320 -8.031214 -19.351143 2.297407 0.000000 0.000000 0.000000 16.657469 0.747380 -0.078703 59.701880 5.871316 -5.281160 1.561954 23.248056 1.446926 0.000000 0.000000 0.000000 
-0.000035 0.943851 0.003262 -1.808064 3.977042 10.743261 6.378309 -0.484695 -5.644602 -1.563389 0.253434 -5.297727 9.679408 20.123830 12.732638 0.000000 0.000000 0.000000 -6.912156 0.736009 -12.508471 3.486269 -0.375688 2.320445 -6.124513 -16.122374 15.319626 0.000000 0.000000 0.000000 -0.351629 0.108555 -2.667801 4.853274 -0.299421 -26.964820 -0.986080 -1.113923 27.750022 -2.246590 3.210211 -31.018722 0.000000 0.000000 0.000000 -23.136135 6.544503 -5.872417 -56.161779 -3.725907 -7.150295 -7.363133 -19.700851 2.242131 0.000000 0.000000 0.000000 16.473647 0.625988 -0.174724 59.755600 5.482387 -5.488732 1.966100 23.035012 1.498417 0.000000 0.000000 0.000000 
-0.000260 0.943967 0.004267 -1.637249 4.832080 10.550389 6.784865 -0.502249 -5.832638 -2.107340 0.267985 -4.700243 9.345805 19.673293 12.567646 0.000000 0.000000 0.000000 -7.321943 0.676637 -12.429344 3.687162 -0.411240 2.791056 -6.284311 -16.277528 15.202382 0.000000 0.000000 0.000000 -0.467591 0.099719 -2.414406 5.015733 -0.357538 -26.430741 -1.098482 -1.190777 26.902641 -2.161986 3.231059 -30.710612 0.000000 0.000000 0.000000 -22.790083 6.480852 -5.945645 -56.305262 -3.509237 -7.159054 -7.546340 -20.132792 2.297469 0.000000 0.000000 0.000000 17.066133 0.053350 -0.418351 59.015509 5.102784 -5.536814 2.196089 22.486071 1.499023 0.000000 0.000000 0.000000 
-0.000466 0.944209 0.004888 -1.661994 5.385098 10.634525 7.109840 -0.532661 -6.482003 -2.355145 0.270006 -3.986990 9.562824 20.007138 12.140003 0.000000 0.000000 0.000000 -7.369883 0.660381 -12.475592 3.752790 -0.426573 2.976040 -6.613110 -16.780652 15.676582 0.000000 0.000000 0.000000 -0.679785 0.104590 -2.476877 4.918483 -0.317045 -26.678731 -0.746876 -1.562673 27.150969 -2.209188 3.243197 -30.468613 0.000000 0.000000 0.000000 -22.945087 6.673902 -6.083722 -56.226819 -3.470827 -7.191124 -7.468401 -20.779647 2.368632 0.000000 0.000000 0.000000 16.748479 0.149312 -0.348054 59.203874 4.827331 -5.697040 1.626444 21.911601 1.352538 0.000000 0.000000 0.000000 
-0.000487 0.944378 0.005012 -1.616656 5.693955 10.721627 7.507024 -0.557933 -7.159176 -3.203880 0.313763 -3.291534 9.828877 20.426858 12.252314 0.000000 0.000000 0.000000 -7.575454 0.638572 -12.543060 4.009942 -0.467950 3.230128 -6.699320 -16.886075 15.450163 0.000000 0.000000 0.000000 -0.577309 0.094607 -2.246470 4.733776 -0.281772 -26.550413 -0.754608 -1.470814 26.927771 -1.859803 3.109960 -30.585910 0.000000 0.000000 0.000000 -22.474273 6.799565 -6.159826 -56.434250 -3.492929 -7.174911 -7.382621 -21.527629 2.431034 0.000000 0.000000 0.000000 16.834184 -0.038595 -0.392604 59.175246 4.675163 -5.739342 1.762209 21.498014 1.349988 0.000000 0.000000 0.000000 
-0.000083 0.944650 0.004787 -1.770520 5.842711 10.531732 7.978335 -0.572724 -7.905140 -3.843011 0.353470 -2.296866 10.213449 21.008266 12.327051 0.000000 0.000000 0.000000 -7.291684 0.654940 -12.546795 4.130991 -0.489972 3.757968 -7.008577 -17.404252 15.385817 0.000000 0.000000 0.000000 -0.520962 0.079079 -1.822660 4.641413 -0.256111 -26.700054 -0.512806 -1.296291 27.131493 -1.479789 2.938067 -29.982833 0.000000 0.000000 0.000000 -22.344956 6.608569 -6.093053 -56.262424 -3.708467 -7.075571 -7.948697 -22.297668 2.626188 0.000000 0.000000 0.000000 16.610510 -0.379410 -0.496979 59.341215 4.424088 -5.894370 2.106734 21.392373 1.413613 0.000000 0.000000 0.000000 
0.000976 0.945159 0.004454 -1.952742 5.899442 10.622017 8.249179 -0.593199 -8.824871 -4.409766 0.396286 -1.590159 10.416435 21.332064 12.592157 0.000000 0.000000 0.000000 -7.290403 0.657134 -12.586519 4.277324 -0.513185 3.812081 -7.043452 -17.460342 15.202531 0.000000 0.000000 0.000000 -0.362208 0.064792 -1.526413 4.553534 -0.236194 -26.703776 -0.430962 -1.208940 27.085917 -1.102074 2.765892 -30.171916 0.000000 0.000000 0.000000 -21.878993 6.394705 -5.907336 -56.557962 -4.181522 -6.897825 -8.119885 -22.460315 2.676225 0.000000 0.000000 0.000000 16.735977 -0.548967 -0.567723 59.261557 4.046097 -6.071797 2.455507 21.165360 1.454669 0.000000 0.000000 0.000000 
